<svg xmlns="http://www.w3.org/2000/svg" viewBox="0 0 1024 1024" role="img" aria-label="football" class="storybook-card-style v5-no-bg premium-detail">
<defs>
<linearGradient id="gGreen" x1="0" y1="0" x2="1" y2="1"><stop offset="0" stop-color="#c9e96b"/><stop offset=".55" stop-color="#71b94d"/><stop offset="1" stop-color="#2f6f38"/></linearGradient>
<linearGradient id="gDarkGreen" x1="0" y1="0" x2="1" y2="1"><stop offset="0" stop-color="#4a9b5a"/><stop offset="1" stop-color="#1e4e32"/></linearGradient>
<linearGradient id="gYellow" x1="0" y1="0" x2="1" y2="1"><stop offset="0" stop-color="#fff08b"/><stop offset="1" stop-color="#d6a43b"/></linearGradient>
<linearGradient id="gBrown" x1="0" y1="0" x2="1" y2="1"><stop offset="0" stop-color="#c78b54"/><stop offset="1" stop-color="#6f4028"/></linearGradient>
<linearGradient id="gRed" x1="0" y1="0" x2="1" y2="1"><stop offset="0" stop-color="#ffcf4c"/><stop offset=".45" stop-color="#df4a42"/><stop offset="1" stop-color="#7a2730"/></linearGradient>
<linearGradient id="gZombie" x1="0" y1="0" x2="1" y2="1"><stop offset="0" stop-color="#d4d0c6"/><stop offset="1" stop-color="#6e7773"/></linearGradient>
<linearGradient id="gCone" x1="0" y1="0" x2="0" y2="1"><stop offset="0" stop-color="#ffc46a"/><stop offset=".55" stop-color="#f36b21"/><stop offset="1" stop-color="#9d3718"/></linearGradient>
<linearGradient id="gMetal" x1="0" y1="0" x2="1" y2="1"><stop offset="0" stop-color="#f1f5f9"/><stop offset=".52" stop-color="#7d8997"/><stop offset="1" stop-color="#2f3742"/></linearGradient>
<filter id="shadow" x="-40%" y="-40%" width="180%" height="180%"><feDropShadow dx="0" dy="18" stdDeviation="12" flood-color="#111827" flood-opacity=".2"/></filter>
<style>.line{stroke:#27252a;stroke-width:18;stroke-linecap:round;stroke-linejoin:round}.thin{stroke:#27252a;stroke-width:10;stroke-linecap:round;stroke-linejoin:round}.soft{stroke:#fff7e8;stroke-width:12;stroke-linecap:round;opacity:.38}.bob{animation:bob 2s ease-in-out infinite alternate;transform-origin:512px 780px}.run{animation:run 1.25s ease-in-out infinite alternate;transform-origin:512px 780px}.blink{animation:blink 3.5s infinite;transform-origin:center}@keyframes bob{from{transform:translateY(7px)}to{transform:translateY(-7px)}}@keyframes run{from{transform:translate(-6px,5px) rotate(-3deg)}to{transform:translate(7px,-6px) rotate(3deg)}}@keyframes blink{0%,92%,100%{transform:scaleY(1)}95%{transform:scaleY(.12)}} </style>
</defs>
<g class="run" filter="url(#shadow)"><!-- 參考圖風格：橄欖球僵屍，紅色護具、衝刺姿勢 -->
<g transform="rotate(-9 512 560)"><ellipse cx="512" cy="910" rx="180" ry="35" fill="#1e293b" opacity=".16"/>
<path class="line" fill="#a52e2e" d="M336 271c78-84 257-83 342 3l-41 135H378z"/><path class="line" fill="#f5e9b8" d="M365 389c82-54 230-54 311 0 33 82 0 178-75 223-82 49-198 36-258-37-42-52-40-130 22-186z"/><circle class="line" cx="410" cy="440" r="47" fill="#f5e9b8"/><circle class="line" cx="562" cy="440" r="47" fill="#f5e9b8"/><circle cx="438" cy="450" r="13" fill="#2b2630"/><circle cx="560" cy="450" r="13" fill="#2b2630"/><path class="thin" d="M425 544q84 60 174 0" fill="none"/><path class="thin" fill="#f7f0d5" d="M458 538l21 53h-43zM557 538l-21 53h43z"/>
<path class="line" fill="#b91c1c" d="M330 618c80-74 284-79 357 0l8 241c-89 57-239 58-353 0z"/><path class="line" fill="#fff7e8" d="M407 642h202l20 108H390z"/><path class="line" fill="#7f1d1d" d="M318 639c-74 32-121 85-151 164l85 44c28-71 68-106 122-129z"/><path class="line" fill="#7f1d1d" d="M684 622c82-2 145 34 199 106l-70 67c-47-61-85-84-137-89z"/></g></g>
</svg>