<svg xmlns="http://www.w3.org/2000/svg" viewBox="0 0 128 128" role="img" aria-label="普通僵屍"><style>.bob{animation:bob 1.4s ease-in-out infinite alternate;transform-origin:64px 82px}.blink{animation:blink 2.8s infinite}.glow{animation:glow 1.2s ease-in-out infinite alternate}.run{animation:run .55s ease-in-out infinite alternate;transform-origin:64px 88px}@keyframes bob{from{transform:translateY(2px)}to{transform:translateY(-4px)}}@keyframes blink{0%,92%,100%{transform:scaleY(1)}95%{transform:scaleY(.12)}}@keyframes glow{from{opacity:.55}to{opacity:1}}@keyframes run{from{transform:rotate(-2deg)}to{transform:rotate(3deg)}}</style><rect width="128" height="128" rx="24" fill="#cbd5e1"/><ellipse cx="64" cy="113" rx="34" ry="8" fill="#000" opacity=".22"/><g class="run"><path d="M50 52c-12 7-17 23-11 41 5 14 27 20 42 12 15-8 18-35 9-49-8-13-27-12-40-4z" fill="#94a3b8" stroke="#334155" stroke-width="4"/><circle cx="64" cy="40" r="22" fill="#a3b18a" stroke="#334155" stroke-width="4"/><g class="blink"><circle cx="56" cy="36" r="4" fill="#111827"/><circle cx="73" cy="38" r="4" fill="#111827"/></g><path d="M55 49q13 6 25 1" stroke="#111827" stroke-width="3" fill="none"/><path d="M42 78l-18 14M88 78l19 12M54 105l-8 15M78 105l10 15" stroke="#334155" stroke-width="7" stroke-linecap="round"/></g></svg>